PathFileType	4	(X/Y/Z)	33_2_68_p1_0-206.trc
DataRate	CameraRate	NumFrames	NumMarkers	Units	OrigDataRate	OrigDataStartFrame	OrigNumFrames
59.0	59.0	7	27	m	59.0	155	207
Frame#	Time	RHip			RKnee			RAnkle			RBigToe			RSmallToe			RHeel			LHip			LKnee			LAnkle			LBigToe			LSmallToe			LHeel			Neck			Head			Nose			RShoulder			RElbow			RWrist			RThumb			RIndex			RPinky			LShoulder			LElbow			LWrist			LThumb			LIndex			LPinky			
		X1	Y1	Z1	X2	Y2	Z2	X3	Y3	Z3	X4	Y4	Z4	X5	Y5	Z5	X6	Y6	Z6	X7	Y7	Z7	X8	Y8	Z8	X9	Y9	Z9	X10	Y10	Z10	X11	Y11	Z11	X12	Y12	Z12	X13	Y13	Z13	X14	Y14	Z14	X15	Y15	Z15	X16	Y16	Z16	X17	Y17	Z17	X18	Y18	Z18	X19	Y19	Z19	X20	Y20	Z20	X21	Y21	Z21	X22	Y22	Z22	X23	Y23	Z23	X24	Y24	Z24	X25	Y25	Z25	X26	Y26	Z26	X27	Y27	Z27	
155	2.6271186440677967	0.3091757357799288	0.24865914767037242	0.20272609189081744	0.25968977545008015	0.499279121590183	0.5805763151552932	0.24289923664024135	0.7274806153354973	0.9197423289663011	0.2429856952403182	0.5732697841532711	1.0025788775626319	0.307865809967227	0.6400612094316681	0.9987227403070649	0.21298218361185273	0.8368844291566696	0.9656214793421664	0.08897527371605998	0.23960233753435886	0.19823972544267482	0.1029492538341359	0.4713462038418613	0.5641198888707561	0.09291577199466777	0.7797175120099797	0.9490910489131864	0.11571429308841365	0.5732454344502039	1.0050119923872984	0.0675926009392746	0.6050345335673905	0.999863947825182	0.09265750086119758	0.8573495195019751	0.9868744509242252	0.22158236824361108	-0.0111229195740841	-0.34594432490970506	0.25823342121859716	-0.2073568711654272	-0.5110305692678996	0.25360950685917283	-0.18507528800840778	-0.38462585806226074	0.3693107121134305	0.08534436942585481	-0.2670267711505563	0.4108662801893723	0.21649182593790742	-0.015328850924984719	0.41084409839625	0.26717592495708437	0.23512373995603883	0.3523130316844696	0.27042457483415056	0.35782790659439945	0.39047239991368987	0.2928317170192655	0.3783975673035031	0.3970999521982268	0.3825058354756829	0.3456743127861677	0.049496701954867404	0.0351919353618542	-0.2686221317399608	-0.00408879379723985	0.18533629632349738	-0.021994338261958478	-0.000575226781206058	0.2550940768788978	0.2414318866319735	0.03305654207931198	0.3319727898426121	0.3459998199390975	0.004358411734259659	0.29971430358610196	0.3626422775747393	-0.023893419289631443	0.2822067475475469	0.35886145853160295
156	2.6440677966101696	0.30923470746396675	0.24851775869037437	0.20260001552245938	0.2643653364815323	0.504796724961463	0.5843466323894494	0.2427592267930412	0.7276054126079916	0.9197234653022357	0.24819460677890404	0.5565621567172988	1.0006786243614227	0.3004840579313935	0.623407455051052	0.9976149634338348	0.21368627217054634	0.8413151242887336	0.9713458778717721	0.08898206459376096	0.23948115140502935	0.19821896763892657	0.09656184769469524	0.4867595866970109	0.5637485586833936	0.09280697162356034	0.7801179747668039	0.9492311751336278	0.11974801386282348	0.5755786134992997	1.0050903909896727	0.0676447147867286	0.6050150086001389	0.9996998752077352	0.09243476722203096	0.858230816407063	0.9873177674926777	0.2215516145777915	-0.01110058947297248	-0.3459290418022053	0.2540802310790591	-0.1993959672739024	-0.5183206702059762	0.25347944769141373	-0.1850848834688947	-0.38465652505606573	0.3690037811575034	0.0830617856870609	-0.2702479003140548	0.4148008507148972	0.20118930064717996	-0.01582237163577902	0.4109239196485078	0.2670279977708237	0.23509215680400225	0.35229734030408344	0.27007911397512296	0.3579637603680002	0.39066549898421143	0.2938380644901975	0.3820780307409882	0.4014815391550886	0.3681349869737035	0.347082631825069	0.04942343322842645	0.03307522059638227	-0.27165168428535214	-0.004325042553562607	0.18258140920583701	-0.025473952935962156	-0.0003566286599869952	0.25625291462915156	0.24528749969759195	0.03323276863802345	0.3319245613794023	0.34598226471553983	0.004635646389907339	0.2998035322886372	0.36266505582672026	-0.022635995167886055	0.2973630150115441	0.3607193375061092
157	2.6610169491525424	0.3128141212386468	0.2599865637825719	0.20017583128553146	0.26440317046259343	0.504878663195301	0.5843793029601303	0.24280545665461611	0.727490762823589	0.919743042180119	0.24837426500585896	0.5569002425660122	0.9999851151274303	0.3049125809203129	0.6029306754730321	0.991071817689521	0.21371567220261276	0.8410150748574841	0.9705921953735746	0.08893244807230509	0.23985220557968442	0.1982272816645749	0.09666042847249165	0.4868482529675829	0.5637952007007091	0.0928983607585069	0.7797100241171956	0.9492426389374442	0.12605256424788386	0.5597826670709245	1.002975494638678	0.07395666617013312	0.5886528439078598	0.9979041552447726	0.09263056684004375	0.8585945351442097	0.9872051659323899	0.2213488964701206	-0.0129321699276223	-0.34871615455946814	0.2540478759203218	-0.19766005358563563	-0.515847537188535	0.25332467514225193	-0.18513301580196645	-0.3847266944380005	0.3689778853990926	0.08314181077590847	-0.2702736733081872	0.41498603304336	0.20245674460398042	-0.011901708202420213	0.41526384209110756	0.2533191969860423	0.23714978834358957	0.35183201994718466	0.26762888058561773	0.35468266858170044	0.3906910526043798	0.29373139376371526	0.38191488914813326	0.4015125453516255	0.36843504141144545	0.34682129107618304	0.049406714456138444	0.033155642265324956	-0.2716770215882042	-0.004289029997730617	0.18290472938093347	-0.025531808662433618	-0.0003641552973944034	0.2562805170654997	0.24531365315923293	0.03675888061712304	0.33385354815006085	0.3455906947864667	0.004834533712168789	0.29963413429411806	0.36270730412353774	-0.02284319034774645	0.2948725086424703	0.3573968469812649
158	2.6779661016949152	0.30497143538517546	0.26193177677327384	0.20011876281642282	0.2637105227925431	0.5015473902160906	0.5803339803246782	0.24284780927276223	0.7273582314125925	0.9197909025957793	0.24815397906254869	0.5557251176625363	1.0011236462147277	0.3057076413853298	0.6057401045468483	0.9962572977910731	0.21375279509705492	0.8411932738239056	0.9712684947397772	0.08877101776583686	0.2400520492558356	0.1981584124608777	0.10064553050449142	0.48949901851330535	0.5633395324064525	0.09493474150938042	0.7962248365200766	0.9497580418291052	0.11578857295646433	0.5732478895294424	1.0048643233259082	0.07379815167287994	0.5889602507487495	0.9979667346419672	0.0926199608024402	0.8590119745033723	0.9873137583270802	0.22129857324856306	-0.012948269573415943	-0.34869465370998004	0.2521415139673378	-0.20810876818188104	-0.5137807326787038	0.2532015941193654	-0.18515869913134061	-0.384839285917659	0.3689550922237549	0.08297610033995458	-0.270163260838888	0.41201667232982886	0.18980022779063097	-0.012878277015310476	0.4152282045845837	0.2532639667602057	0.23715653884322033	0.34809383451664855	0.2683281642458186	0.3579861473807706	0.3865262984105714	0.29116584059197526	0.3788410290484922	0.4016548888089499	0.36836226093498964	0.3470528522030469	0.049408842369565956	0.03326669393025739	-0.2716258903564282	-0.016658133209441282	0.21062802667944863	-0.02820380939322346	-0.0003529728219262648	0.25635456641304044	0.24538931885546333	0.0427925733713743	0.32066005285275967	0.34696496096811946	0.010522469572862498	0.2861936839831292	0.36416141129432933	-0.016721160733292943	0.2812202993986174	0.35872391088915134
159	2.694915254237288	0.3042550754385579	0.26246940952222825	0.20033253337776008	0.26372812714450783	0.501591310610373	0.5802842122819168	0.23840583822452693	0.7259391552696314	0.9199420017730141	0.24803733518790624	0.5558981356342093	1.0011941473399215	0.3056725079027737	0.6058538043528806	0.9962123337015274	0.2137096573981784	0.8412604253964493	0.9713143539628099	0.0873306910347112	0.2591534809606694	0.19854835525967954	0.1005480749197978	0.4895794404429624	0.5633497311974546	0.09301896848487849	0.7799600442641867	0.9488683519938076	0.11976777549426641	0.5755129749208531	1.0050762458215265	0.06776583370932845	0.6048928622922932	0.9995668332059531	0.09260094660751483	0.8587227002081237	0.9872596176111518	0.22126397040324908	-0.012955463113493462	-0.3486732472353044	0.25209865503344103	-0.20802192601075722	-0.513867951063585	0.2531346650263	-0.1851465235399659	-0.38486738949552496	0.3689501857764563	0.0830016199974414	-0.27014687501960716	0.4119955591344244	0.1900131466934981	-0.012965868980481705	0.4151743767564562	0.25315957687657253	0.23720230867538494	0.34756526321327375	0.26581609996388894	0.3550098648863206	0.38649373148865024	0.29084881984755667	0.3788544523443673	0.4018819499506624	0.367649892735254	0.3472818569513457	0.04938555799751181	0.03327308238751347	-0.27159855190343185	-0.017143039453113712	0.21384301489908747	-0.02181429726886008	-0.0004154276274541262	0.2567830020838849	0.24536832522550847	0.0429029305464011	0.32027530401139587	0.3468574613655656	0.008836010259525134	0.27364907261196153	0.3656531026410062	-0.016561580211270327	0.2808906490105806	0.35883717831145334
160	2.711864406779661	0.3042788351577488	0.2625379753118719	0.20049259332537187	0.2637241111125059	0.5013784572863619	0.5801842047917407	0.24282715534923635	0.7274154315201253	0.9195063628943267	0.24824384645064154	0.5560175140414648	1.0007499013586845	0.30582382292869914	0.6058339616572114	0.9956008261489261	0.21375587705511276	0.8412757271193533	0.9706658679987961	0.08733195933961327	0.259237360403024	0.198505413459225	0.09664955316946645	0.4870199552312847	0.5635991132151857	0.09294471181468768	0.7801411748313638	0.94881155896042	0.12176827764843125	0.5573830632938849	1.0027905458019928	0.07342289239942806	0.58818174914201	0.993538289095534	0.09258561965565758	0.8588342815946667	0.9872122237565201	0.22139481013386025	-0.010958442504061349	-0.34591977688451225	0.24789951835628535	-0.198198923270025	-0.5187579193889889	0.25298898297395406	-0.1851181995000575	-0.38494103408348335	0.36929429959951526	0.08516385724414544	-0.26688957981201805	0.4120657167648715	0.1898888021178203	-0.012818187356294631	0.4151549550537517	0.25285242040642697	0.237365872699398	0.3467175089939223	0.2669614838146922	0.3583413218540777	0.37626735481919865	0.26572938005728614	0.38569886584848084	0.4014019791697158	0.3684126656632667	0.35033457346289626	0.04939300974237745	0.03345857703823903	-0.27165789860792516	-0.02331802494005505	0.22639431061406418	-0.024957152309504575	-0.0003056160218646777	0.25669271190508575	0.2453255080308461	0.04306824391037486	0.3202250832889005	0.34666406772951036	0.010038212843857775	0.2854308298631541	0.36394183617334763	-0.011741974844602267	0.25606891309870333	0.3617539688369176
161	2.7288135593220337	0.30820474760134164	0.26447265797328073	0.20002183819778008	0.2637890156111271	0.5013494093805616	0.5802447179475638	0.2428119126294777	0.7274406827782903	0.9194524057046077	0.2483911449182812	0.556075257583677	1.0005249200326327	0.3058823801586321	0.6058477019056163	0.9955916875732354	0.2148442009485335	0.8387298768574596	0.9666574323179381	0.09274293676360881	0.24331821538394424	0.19743405062335193	0.10266230202515854	0.5039429809134579	0.56257593169022	0.09294529763419317	0.7801521444472189	0.9488212945262839	0.12201601957645265	0.5573780114989122	1.0023198197571954	0.06909966576958995	0.5854939477295957	0.9935022309909021	0.09278070506986257	0.8593932185688202	0.9871771953660494	0.2212161603240839	-0.012895356629805366	-0.34868467109640944	0.24780370147111283	-0.19794620598958743	-0.5188028947220573	0.2528863336718607	-0.18515044872202738	-0.3850018617825374	0.36931801309737355	0.08502155986602766	-0.2668171107814154	0.4124747170962321	0.19174255338858323	-0.009876629059886363	0.4151795926045529	0.25263028054291664	0.23742908834410784	0.3444189305070441	0.2562585812529697	0.3640231949031038	0.36437610277119503	0.2652881950176006	0.3863658892625886	0.40322613772441573	0.3414789430641009	0.3539183367992756	0.04941324756094718	0.0335786043238339	-0.2716810774216187	-0.021749895539443054	0.2393125571551429	-0.02834677961995097	0.0013535705439665319	0.26831028263616086	0.2395846900793941	0.04709438725376496	0.3220045946524831	0.3461368318246282	0.013244215061956523	0.2759629547061922	0.3650456280029923	-0.013155021283285585	0.2700755647858615	0.3599509664988431
